<?xml version="1.0" standalone="no"?>
<!DOCTYPE svg PUBLIC "-//W3C//DTD SVG 20010904//EN"
 "http://www.w3.org/TR/2001/REC-SVG-20010904/DTD/svg10.dtd">
<svg version="1.0" xmlns="http://www.w3.org/2000/svg"
 width="2000.000000pt" height="1500.000000pt" viewBox="0 0 2000.000000 1500.000000"
 preserveAspectRatio="xMidYMid meet">

<g transform="translate(0.000000,1500.000000) scale(0.100000,-0.100000)"
fill="#000000" stroke="none">
<path d="M8415 9929 c-647 -44 -1073 -185 -1349 -449 -132 -126 -213 -259
-257 -425 -30 -109 -32 -334 -6 -448 58 -245 190 -418 377 -491 170 -67 440
-60 600 16 191 91 325 341 347 650 l6 88 -210 0 -210 0 -6 -82 c-8 -108 -39
-209 -80 -255 -117 -133 -326 -79 -397 103 -20 50 -24 78 -24 184 -1 149 21
232 88 332 134 200 399 311 865 363 160 17 511 32 511 21 0 -5 -998 -2777
-1025 -2848 -6 -16 -24 -18 -176 -18 l-169 0 0 -195 0 -195 555 0 555 0 0 195
0 195 -155 0 c-85 0 -155 4 -155 8 0 7 76 231 212 625 l20 57 716 -2 716 -3
117 -340 117 -340 -154 -3 -154 -3 0 -194 0 -195 555 0 555 0 0 195 0 195
-173 0 -172 0 -514 1428 c-283 785 -516 1433 -519 1440 -3 9 31 12 152 12
l156 0 0 195 0 195 -597 -1 c-329 -1 -652 -6 -718 -10z m938 -1374 l292 -850
-594 -3 c-327 -1 -596 0 -598 2 -2 2 130 394 294 870 204 593 300 860 306 848
4 -9 139 -399 300 -867z"/>
<path d="M11116 9908 c2 -18 18 -253 34 -523 17 -269 33 -505 36 -522 l5 -33
159 0 160 0 0 28 c0 15 16 248 35 517 19 270 35 507 35 528 l0 37 -234 0 -235
0 5 -32z"/>
<path d="M15895 8943 c-329 -26 -608 -79 -862 -165 l-123 -41 0 -313 0 -314
180 0 180 0 0 175 0 174 38 10 c188 51 339 71 562 78 219 6 275 -1 369 -48 65
-32 119 -85 151 -148 39 -78 51 -149 57 -347 l6 -191 -384 -6 c-412 -5 -496
-13 -663 -62 -288 -84 -511 -295 -582 -550 -21 -79 -30 -274 -15 -362 50 -297
232 -503 511 -580 92 -25 393 -26 498 0 201 49 406 159 560 301 33 31 62 56
64 56 3 0 8 -31 11 -70 10 -114 58 -200 137 -240 66 -33 140 -45 285 -44 160
1 249 20 373 79 l72 34 0 111 0 110 -215 0 -215 0 0 784 c0 503 -4 812 -11
861 -37 270 -186 492 -408 609 -149 78 -369 116 -576 99z m555 -1649 l0 -166
-64 -77 c-135 -162 -279 -280 -427 -350 -126 -61 -193 -76 -339 -76 -114 0
-130 2 -181 26 -107 50 -171 146 -191 287 -38 269 134 465 447 511 33 5 216 9
408 10 l347 1 0 -166z"/>
<path d="M11952 8723 l3 -168 161 -3 161 -2 428 -1171 c426 -1166 428 -1171
415 -1213 -7 -22 -34 -89 -60 -148 -119 -269 -274 -437 -458 -499 -90 -31
-237 -30 -377 1 -55 12 -111 24 -125 27 -24 4 -27 -1 -82 -164 -32 -92 -59
-174 -60 -181 -4 -18 123 -57 270 -82 372 -65 677 15 873 228 129 141 284 413
398 702 28 69 228 659 446 1312 l397 1187 121 3 122 3 3 168 2 167 -470 0
-470 0 0 -170 0 -170 115 0 c65 0 115 -4 115 -9 0 -9 -524 -1709 -537 -1741
-3 -8 -137 381 -297 865 l-292 880 93 3 93 3 0 169 0 170 -495 0 -495 0 2
-167z"/>
</g>
</svg>
