<svg width="36" height="37" viewBox="0 0 36 37" fill="none" xmlns="http://www.w3.org/2000/svg">
<g filter="url(#filter0_d_22702_2967)">
<path d="M9.6665 9.33334H28.0532C28.4257 9.33336 28.7942 9.41144 29.1347 9.56255C29.4752 9.71366 29.7803 9.93446 30.0303 10.2107C30.2803 10.4869 30.4696 10.8125 30.5861 11.1664C30.7026 11.5203 30.7436 11.8946 30.7065 12.2653L29.9065 20.2654C29.8407 20.9234 29.5328 21.5334 29.0425 21.9772C28.5522 22.4209 27.9145 22.6667 27.2532 22.6667H14.5198C13.9031 22.6669 13.3054 22.4534 12.8284 22.0625C12.3515 21.6716 12.0247 21.1274 11.9038 20.5227L9.6665 9.33334Z" stroke="#454F5B" stroke-width="2" stroke-linecap="round" stroke-linejoin="round"/>
<path d="M9.6665 9.33333L8.5865 5.00933C8.51427 4.721 8.34777 4.46508 8.11345 4.28221C7.87912 4.09934 7.59041 4.00001 7.29317 4H5.6665" stroke="#454F5B" stroke-width="2" stroke-linecap="round" stroke-linejoin="round"/>
<path d="M13.6665 28H16.3332" stroke="#454F5B" stroke-width="2" stroke-linecap="round" stroke-linejoin="round"/>
<path d="M24.3335 28H27.0002" stroke="#454F5B" stroke-width="2" stroke-linecap="round" stroke-linejoin="round"/>
</g>
<defs>
<filter id="filter0_d_22702_2967" x="-1" y="0" width="40" height="40" filterUnits="userSpaceOnUse" color-interpolation-filters="sRGB">
<feFlood flood-opacity="0" result="BackgroundImageFix"/>
<feColorMatrix in="SourceAlpha" type="matrix" values="0 0 0 0 0 0 0 0 0 0 0 0 0 0 0 0 0 0 127 0" result="hardAlpha"/>
<feOffset dy="4"/>
<feGaussianBlur stdDeviation="2"/>
<feComposite in2="hardAlpha" operator="out"/>
<feColorMatrix type="matrix" values="0 0 0 0 0 0 0 0 0 0 0 0 0 0 0 0 0 0 0.25 0"/>
<feBlend mode="normal" in2="BackgroundImageFix" result="effect1_dropShadow_22702_2967"/>
<feBlend mode="normal" in="SourceGraphic" in2="effect1_dropShadow_22702_2967" result="shape"/>
</filter>
</defs>
</svg>
