<svg width="448" height="113" viewBox="0 0 448 113" fill="none" xmlns="http://www.w3.org/2000/svg">
<rect x="0.5" y="0.5" width="447" height="112" stroke="#C91B1B"/>
<path d="M34 9H22V101H34V9Z" fill="#F16D7F"/>
<path d="M78.296 28.0831H68.12V57.0991H60.896V28.0831H50.72V22.2751H78.296V28.0831ZM112.449 22.2751V57.0991H105.201V42.0991H89.8648V57.0991H82.6168V22.2751H89.8648V37.0591H105.201V22.2751H112.449ZM126.99 27.9151V36.8671H138.606V42.3151H126.99V51.4591H141.918V57.0991H119.742V22.2751H141.918V27.9151H126.99ZM172.063 51.5791C173.215 51.5791 174.159 51.4431 174.895 51.1711C175.647 50.8831 176.247 50.5071 176.695 50.0431C177.143 49.5791 177.455 49.0511 177.631 48.4591C177.807 47.8511 177.895 47.2271 177.895 46.5871C177.895 45.8831 177.791 45.2511 177.583 44.6911C177.375 44.1311 177.039 43.6591 176.575 43.2751C176.111 42.8751 175.503 42.5711 174.751 42.3631C174.015 42.1551 173.103 42.0511 172.015 42.0511H165.895V51.5791H172.063ZM165.895 27.7471V37.1551H170.623C171.631 37.1551 172.527 37.0751 173.311 36.9151C174.095 36.7391 174.751 36.4671 175.279 36.0991C175.807 35.7311 176.207 35.2511 176.479 34.6591C176.767 34.0511 176.911 33.3231 176.911 32.4751C176.911 31.6111 176.791 30.8751 176.551 30.2671C176.327 29.6591 175.975 29.1711 175.495 28.8031C175.015 28.4351 174.407 28.1711 173.671 28.0111C172.935 27.8351 172.063 27.7471 171.055 27.7471H165.895ZM171.055 22.2751C173.391 22.2751 175.383 22.4991 177.031 22.9471C178.695 23.3791 180.047 24.0031 181.087 24.8191C182.143 25.6191 182.911 26.5951 183.391 27.7471C183.871 28.8991 184.111 30.1871 184.111 31.6111C184.111 32.4111 183.991 33.1791 183.751 33.9151C183.527 34.6511 183.167 35.3471 182.671 36.0031C182.191 36.6431 181.567 37.2271 180.799 37.7551C180.031 38.2831 179.119 38.7311 178.063 39.0991C180.431 39.6591 182.183 40.5711 183.319 41.8351C184.455 43.0991 185.023 44.7391 185.023 46.7551C185.023 48.2271 184.735 49.5951 184.159 50.8591C183.599 52.1231 182.775 53.2191 181.687 54.1471C180.599 55.0751 179.255 55.8031 177.655 56.3311C176.071 56.8431 174.247 57.0991 172.183 57.0991H158.695V22.2751H171.055ZM201.419 38.7631C202.587 38.7631 203.595 38.6191 204.443 38.3311C205.291 38.0271 205.987 37.6191 206.531 37.1071C207.075 36.5791 207.475 35.9631 207.731 35.2591C207.987 34.5551 208.115 33.7871 208.115 32.9551C208.115 31.3071 207.563 30.0271 206.459 29.1151C205.371 28.2031 203.707 27.7471 201.467 27.7471H197.723V38.7631H201.419ZM218.291 57.0991H211.787C210.571 57.0991 209.691 56.6351 209.147 55.7071L202.523 45.0271C202.251 44.6111 201.947 44.3071 201.611 44.1151C201.291 43.9231 200.811 43.8271 200.171 43.8271H197.723V57.0991H190.523V22.2751H201.467C203.899 22.2751 205.979 22.5311 207.707 23.0431C209.435 23.5391 210.851 24.2351 211.955 25.1311C213.059 26.0271 213.867 27.0991 214.379 28.3471C214.891 29.5791 215.147 30.9391 215.147 32.4271C215.147 33.5791 214.979 34.6751 214.643 35.7151C214.323 36.7391 213.851 37.6751 213.227 38.5231C212.603 39.3711 211.835 40.1231 210.923 40.7791C210.011 41.4351 208.971 41.9631 207.803 42.3631C208.267 42.6191 208.699 42.9311 209.099 43.2991C209.499 43.6511 209.859 44.0751 210.179 44.5711L218.291 57.0991ZM240.079 43.8751L236.311 33.2191C236.087 32.6591 235.847 32.0031 235.591 31.2511C235.351 30.4991 235.119 29.6831 234.895 28.8031C234.671 29.6991 234.431 30.5311 234.175 31.2991C233.935 32.0511 233.703 32.7071 233.479 33.2671L229.735 43.8751H240.079ZM252.175 57.0991H246.583C245.959 57.0991 245.447 56.9551 245.047 56.6671C244.663 56.3631 244.375 55.9791 244.183 55.5151L241.831 48.8671H227.959L225.607 55.5151C225.447 55.9151 225.167 56.2831 224.767 56.6191C224.367 56.9391 223.863 57.0991 223.255 57.0991H217.615L231.223 22.2751H238.591L252.175 57.0991ZM285.23 22.2751V57.0991H281.51C280.95 57.0991 280.478 57.0111 280.094 56.8351C279.71 56.6431 279.334 56.3231 278.966 55.8751L261.614 33.7951C261.662 34.3551 261.694 34.9071 261.71 35.4511C261.742 35.9951 261.758 36.4991 261.758 36.9631V57.0991H255.398V22.2751H259.19C259.494 22.2751 259.75 22.2911 259.958 22.3231C260.182 22.3391 260.382 22.3951 260.558 22.4911C260.734 22.5711 260.902 22.6831 261.062 22.8271C261.222 22.9711 261.398 23.1631 261.59 23.4031L279.062 45.5791C278.998 44.9711 278.95 44.3871 278.918 43.8271C278.886 43.2511 278.87 42.7071 278.87 42.1951V22.2751H285.23ZM323.747 39.6751C323.747 42.2191 323.315 44.5631 322.451 46.7071C321.603 48.8351 320.395 50.6671 318.827 52.2031C317.275 53.7391 315.403 54.9391 313.211 55.8031C311.019 56.6671 308.587 57.0991 305.915 57.0991H292.523V22.2751H305.915C308.587 22.2751 311.019 22.7071 313.211 23.5711C315.403 24.4351 317.275 25.6431 318.827 27.1951C320.395 28.7311 321.603 30.5631 322.451 32.6911C323.315 34.8191 323.747 37.1471 323.747 39.6751ZM316.355 39.6751C316.355 37.8511 316.115 36.2111 315.635 34.7551C315.155 33.2991 314.467 32.0671 313.571 31.0591C312.675 30.0511 311.579 29.2751 310.283 28.7311C309.003 28.1871 307.547 27.9151 305.915 27.9151H299.771V51.4591H305.915C307.547 51.4591 309.003 51.1951 310.283 50.6671C311.579 50.1231 312.675 49.3471 313.571 48.3391C314.467 47.3151 315.155 46.0751 315.635 44.6191C316.115 43.1631 316.355 41.5151 316.355 39.6751ZM74.64 83.5311C74.64 85.2271 74.3573 86.8005 73.792 88.2511C73.2373 89.6911 72.448 90.9391 71.424 91.9951C70.4 93.0511 69.168 93.8778 67.728 94.4751C66.288 95.0618 64.688 95.3551 62.928 95.3551C61.1787 95.3551 59.584 95.0618 58.144 94.4751C56.704 93.8778 55.4667 93.0511 54.432 91.9951C53.408 90.9391 52.6133 89.6911 52.048 88.2511C51.4827 86.8005 51.2 85.2271 51.2 83.5311C51.2 81.8351 51.4827 80.2671 52.048 78.8271C52.6133 77.3765 53.408 76.1231 54.432 75.0671C55.4667 74.0111 56.704 73.1898 58.144 72.6031C59.584 72.0058 61.1787 71.7071 62.928 71.7071C64.1013 71.7071 65.2053 71.8458 66.24 72.1231C67.2747 72.3898 68.224 72.7738 69.088 73.2751C69.952 73.7658 70.7253 74.3685 71.408 75.0831C72.1013 75.7871 72.688 76.5765 73.168 77.4511C73.648 78.3258 74.0107 79.2751 74.256 80.2991C74.512 81.3231 74.64 82.4005 74.64 83.5311ZM70.24 83.5311C70.24 82.2618 70.0693 81.1258 69.728 80.1231C69.3867 79.1098 68.9013 78.2511 68.272 77.5471C67.6427 76.8431 66.8747 76.3045 65.968 75.9311C65.072 75.5578 64.0587 75.3711 62.928 75.3711C61.7973 75.3711 60.7787 75.5578 59.872 75.9311C58.976 76.3045 58.208 76.8431 57.568 77.5471C56.9387 78.2511 56.4533 79.1098 56.112 80.1231C55.7707 81.1258 55.6 82.2618 55.6 83.5311C55.6 84.8005 55.7707 85.9418 56.112 86.9551C56.4533 87.9578 56.9387 88.8111 57.568 89.5151C58.208 90.2085 58.976 90.7418 59.872 91.1151C60.7787 91.4885 61.7973 91.6751 62.928 91.6751C64.0587 91.6751 65.072 91.4885 65.968 91.1151C66.8747 90.7418 67.6427 90.2085 68.272 89.5151C68.9013 88.8111 69.3867 87.9578 69.728 86.9551C70.0693 85.9418 70.24 84.8005 70.24 83.5311ZM82.7398 75.3871V82.2351H91.4118V85.6751H82.7398V95.0991H78.4198V71.9631H93.0118V75.3871H82.7398ZM117.097 91.5471V95.0991H103.545V71.9631H107.849V91.5471H117.097ZM128.857 91.6271C129.689 91.6271 130.43 91.4885 131.081 91.2111C131.742 90.9338 132.297 90.5445 132.745 90.0431C133.193 89.5418 133.534 88.9338 133.769 88.2191C134.014 87.5045 134.137 86.7045 134.137 85.8191V71.9631H138.441V85.8191C138.441 87.1951 138.217 88.4698 137.769 89.6431C137.331 90.8058 136.697 91.8138 135.865 92.6671C135.043 93.5098 134.041 94.1711 132.857 94.6511C131.673 95.1205 130.339 95.3551 128.857 95.3551C127.363 95.3551 126.025 95.1205 124.841 94.6511C123.657 94.1711 122.649 93.5098 121.817 92.6671C120.995 91.8138 120.361 90.8058 119.913 89.6431C119.475 88.4698 119.257 87.1951 119.257 85.8191V71.9631H123.561V85.8031C123.561 86.6885 123.678 87.4885 123.913 88.2031C124.158 88.9178 124.505 89.5311 124.953 90.0431C125.411 90.5445 125.966 90.9338 126.617 91.2111C127.278 91.4885 128.025 91.6271 128.857 91.6271ZM162.095 95.0991H157.807C157.508 95.0991 157.268 95.0245 157.087 94.8751C156.916 94.7258 156.777 94.5551 156.671 94.3631L151.311 85.4831C151.225 85.7498 151.124 85.9791 151.007 86.1711L145.871 94.3631C145.743 94.5445 145.593 94.7151 145.423 94.8751C145.263 95.0245 145.049 95.0991 144.783 95.0991H140.767L148.447 83.1951L141.071 71.9631H145.359C145.657 71.9631 145.871 72.0058 145.999 72.0911C146.137 72.1658 146.265 72.2938 146.383 72.4751L151.647 80.9551C151.753 80.6885 151.881 80.4218 152.031 80.1551L156.863 72.5551C156.98 72.3525 157.108 72.2031 157.247 72.1071C157.385 72.0111 157.561 71.9631 157.775 71.9631H161.887L154.447 83.0191L162.095 95.0991ZM169.084 75.3871V81.8031H177.18V85.1151H169.084V91.6591H179.356V95.0991H164.764V71.9631H179.356V75.3871H169.084ZM190.162 82.9711C190.972 82.9711 191.676 82.8698 192.274 82.6671C192.882 82.4645 193.378 82.1871 193.762 81.8351C194.156 81.4725 194.45 81.0458 194.642 80.5551C194.834 80.0645 194.93 79.5258 194.93 78.9391C194.93 77.7658 194.54 76.8645 193.762 76.2351C192.994 75.6058 191.815 75.2911 190.226 75.2911H187.474V82.9711H190.162ZM201.234 95.0991H197.346C196.61 95.0991 196.076 94.8111 195.746 94.2351L190.882 86.8271C190.7 86.5498 190.498 86.3525 190.274 86.2351C190.06 86.1178 189.74 86.0591 189.314 86.0591H187.474V95.0991H183.17V71.9631H190.226C191.794 71.9631 193.138 72.1285 194.258 72.4591C195.388 72.7791 196.311 73.2325 197.026 73.8191C197.751 74.4058 198.284 75.1098 198.626 75.9311C198.967 76.7418 199.138 77.6378 199.138 78.6191C199.138 79.3978 199.02 80.1338 198.786 80.8271C198.562 81.5205 198.231 82.1498 197.794 82.7151C197.367 83.2805 196.834 83.7765 196.194 84.2031C195.564 84.6298 194.844 84.9658 194.034 85.2111C194.311 85.3711 194.567 85.5631 194.802 85.7871C195.036 86.0005 195.25 86.2565 195.442 86.5551L201.234 95.0991ZM208.052 95.0991H203.732V71.9631H208.052V95.0991ZM235.296 83.5311C235.296 85.2271 235.014 86.8005 234.448 88.2511C233.894 89.6911 233.104 90.9391 232.08 91.9951C231.056 93.0511 229.824 93.8778 228.384 94.4751C226.944 95.0618 225.344 95.3551 223.584 95.3551C221.835 95.3551 220.24 95.0618 218.8 94.4751C217.36 93.8778 216.123 93.0511 215.088 91.9951C214.064 90.9391 213.27 89.6911 212.704 88.2511C212.139 86.8005 211.856 85.2271 211.856 83.5311C211.856 81.8351 212.139 80.2671 212.704 78.8271C213.27 77.3765 214.064 76.1231 215.088 75.0671C216.123 74.0111 217.36 73.1898 218.8 72.6031C220.24 72.0058 221.835 71.7071 223.584 71.7071C224.758 71.7071 225.862 71.8458 226.896 72.1231C227.931 72.3898 228.88 72.7738 229.744 73.2751C230.608 73.7658 231.382 74.3685 232.064 75.0831C232.758 75.7871 233.344 76.5765 233.824 77.4511C234.304 78.3258 234.667 79.2751 234.912 80.2991C235.168 81.3231 235.296 82.4005 235.296 83.5311ZM230.896 83.5311C230.896 82.2618 230.726 81.1258 230.384 80.1231C230.043 79.1098 229.558 78.2511 228.928 77.5471C228.299 76.8431 227.531 76.3045 226.624 75.9311C225.728 75.5578 224.715 75.3711 223.584 75.3711C222.454 75.3711 221.435 75.5578 220.528 75.9311C219.632 76.3045 218.864 76.8431 218.224 77.5471C217.595 78.2511 217.11 79.1098 216.768 80.1231C216.427 81.1258 216.256 82.2618 216.256 83.5311C216.256 84.8005 216.427 85.9418 216.768 86.9551C217.11 87.9578 217.595 88.8111 218.224 89.5151C218.864 90.2085 219.632 90.7418 220.528 91.1151C221.435 91.4885 222.454 91.6751 223.584 91.6751C224.715 91.6751 225.728 91.4885 226.624 91.1151C227.531 90.7418 228.299 90.2085 228.928 89.5151C229.558 88.8111 230.043 87.9578 230.384 86.9551C230.726 85.9418 230.896 84.8005 230.896 83.5311ZM248.388 91.6271C249.22 91.6271 249.961 91.4885 250.612 91.2111C251.273 90.9338 251.828 90.5445 252.276 90.0431C252.724 89.5418 253.065 88.9338 253.3 88.2191C253.545 87.5045 253.668 86.7045 253.668 85.8191V71.9631H257.972V85.8191C257.972 87.1951 257.748 88.4698 257.3 89.6431C256.863 90.8058 256.228 91.8138 255.396 92.6671C254.575 93.5098 253.572 94.1711 252.388 94.6511C251.204 95.1205 249.871 95.3551 248.388 95.3551C246.895 95.3551 245.556 95.1205 244.372 94.6511C243.188 94.1711 242.18 93.5098 241.348 92.6671C240.527 91.8138 239.892 90.8058 239.444 89.6431C239.007 88.4698 238.788 87.1951 238.788 85.8191V71.9631H243.092V85.8031C243.092 86.6885 243.209 87.4885 243.444 88.2031C243.689 88.9178 244.036 89.5311 244.484 90.0431C244.943 90.5445 245.497 90.9338 246.148 91.2111C246.809 91.4885 247.556 91.6271 248.388 91.6271ZM275.146 76.1711C275.018 76.3951 274.879 76.5605 274.73 76.6671C274.591 76.7631 274.415 76.8111 274.202 76.8111C273.978 76.8111 273.733 76.7311 273.466 76.5711C273.21 76.4005 272.901 76.2138 272.538 76.0111C272.175 75.8085 271.749 75.6271 271.258 75.4671C270.778 75.2965 270.207 75.2111 269.546 75.2111C268.949 75.2111 268.426 75.2858 267.978 75.4351C267.53 75.5738 267.151 75.7711 266.842 76.0271C266.543 76.2831 266.319 76.5925 266.17 76.9551C266.021 77.3071 265.946 77.6965 265.946 78.1231C265.946 78.6671 266.095 79.1205 266.394 79.4831C266.703 79.8458 267.109 80.1551 267.61 80.4111C268.111 80.6671 268.682 80.8965 269.322 81.0991C269.962 81.3018 270.618 81.5205 271.29 81.7551C271.962 81.9791 272.618 82.2458 273.258 82.5551C273.898 82.8538 274.469 83.2378 274.97 83.7071C275.471 84.1658 275.871 84.7311 276.17 85.4031C276.479 86.0751 276.634 86.8911 276.634 87.8511C276.634 88.8965 276.453 89.8778 276.09 90.7951C275.738 91.7018 275.215 92.4965 274.522 93.1791C273.839 93.8511 273.002 94.3845 272.01 94.7791C271.018 95.1631 269.882 95.3551 268.602 95.3551C267.866 95.3551 267.141 95.2805 266.426 95.1311C265.711 94.9925 265.023 94.7898 264.362 94.5231C263.711 94.2565 263.098 93.9365 262.522 93.5631C261.946 93.1898 261.434 92.7738 260.986 92.3151L262.25 90.2511C262.357 90.1018 262.495 89.9791 262.666 89.8831C262.837 89.7765 263.018 89.7231 263.21 89.7231C263.477 89.7231 263.765 89.8351 264.074 90.0591C264.383 90.2725 264.751 90.5125 265.178 90.7791C265.605 91.0458 266.101 91.2911 266.666 91.5151C267.242 91.7285 267.93 91.8351 268.73 91.8351C269.957 91.8351 270.906 91.5471 271.578 90.9711C272.25 90.3845 272.586 89.5471 272.586 88.4591C272.586 87.8511 272.431 87.3551 272.122 86.9711C271.823 86.5871 271.423 86.2671 270.922 86.0111C270.421 85.7445 269.85 85.5205 269.21 85.3391C268.57 85.1578 267.919 84.9605 267.258 84.7471C266.597 84.5338 265.946 84.2778 265.306 83.9791C264.666 83.6805 264.095 83.2911 263.594 82.8111C263.093 82.3311 262.687 81.7338 262.378 81.0191C262.079 80.2938 261.93 79.4031 261.93 78.3471C261.93 77.5045 262.095 76.6831 262.426 75.8831C262.767 75.0831 263.258 74.3738 263.898 73.7551C264.538 73.1365 265.327 72.6405 266.266 72.2671C267.205 71.8938 268.282 71.7071 269.498 71.7071C270.863 71.7071 272.122 71.9205 273.274 72.3471C274.426 72.7738 275.407 73.3711 276.218 74.1391L275.146 76.1711Z" fill="#222222"/>
<path d="M292.49 75.3871V82.2351H301.162V85.6751H292.49V95.0991H288.17V71.9631H302.762V75.3871H292.49ZM316.613 86.3631L313.797 78.6671C313.658 78.3258 313.514 77.9205 313.365 77.4511C313.215 76.9818 313.066 76.4751 312.917 75.9311C312.778 76.4751 312.634 76.9871 312.485 77.4671C312.335 77.9365 312.191 78.3471 312.053 78.6991L309.253 86.3631H316.613ZM324.213 95.0991H320.885C320.511 95.0991 320.207 95.0085 319.973 94.8271C319.738 94.6351 319.562 94.4005 319.444 94.1231L317.717 89.4031H308.133L306.405 94.1231C306.319 94.3685 306.154 94.5925 305.909 94.7951C305.663 94.9978 305.359 95.0991 304.997 95.0991H301.636L310.741 71.9631H315.125L324.213 95.0991ZM338.927 76.1711C338.799 76.3951 338.661 76.5605 338.511 76.6671C338.373 76.7631 338.197 76.8111 337.983 76.8111C337.759 76.8111 337.514 76.7311 337.247 76.5711C336.991 76.4005 336.682 76.2138 336.319 76.0111C335.957 75.8085 335.53 75.6271 335.039 75.4671C334.559 75.2965 333.989 75.2111 333.327 75.2111C332.73 75.2111 332.207 75.2858 331.759 75.4351C331.311 75.5738 330.933 75.7711 330.623 76.0271C330.325 76.2831 330.101 76.5925 329.951 76.9551C329.802 77.3071 329.727 77.6965 329.727 78.1231C329.727 78.6671 329.877 79.1205 330.175 79.4831C330.485 79.8458 330.89 80.1551 331.391 80.4111C331.893 80.6671 332.463 80.8965 333.103 81.0991C333.743 81.3018 334.399 81.5205 335.071 81.7551C335.743 81.9791 336.399 82.2458 337.039 82.5551C337.679 82.8538 338.25 83.2378 338.751 83.7071C339.253 84.1658 339.653 84.7311 339.951 85.4031C340.261 86.0751 340.415 86.8911 340.415 87.8511C340.415 88.8965 340.234 89.8778 339.871 90.7951C339.519 91.7018 338.997 92.4965 338.303 93.1791C337.621 93.8511 336.783 94.3845 335.791 94.7791C334.799 95.1631 333.663 95.3551 332.383 95.3551C331.647 95.3551 330.922 95.2805 330.207 95.1311C329.493 94.9925 328.805 94.7898 328.143 94.5231C327.493 94.2565 326.879 93.9365 326.303 93.5631C325.727 93.1898 325.215 92.7738 324.767 92.3151L326.031 90.2511C326.138 90.1018 326.277 89.9791 326.447 89.8831C326.618 89.7765 326.799 89.7231 326.991 89.7231C327.258 89.7231 327.546 89.8351 327.855 90.0591C328.165 90.2725 328.533 90.5125 328.959 90.7791C329.386 91.0458 329.882 91.2911 330.447 91.5151C331.023 91.7285 331.711 91.8351 332.511 91.8351C333.738 91.8351 334.687 91.5471 335.359 90.9711C336.031 90.3845 336.367 89.5471 336.367 88.4591C336.367 87.8511 336.213 87.3551 335.903 86.9711C335.605 86.5871 335.205 86.2671 334.703 86.0111C334.202 85.7445 333.631 85.5205 332.991 85.3391C332.351 85.1578 331.701 84.9605 331.039 84.7471C330.378 84.5338 329.727 84.2778 329.087 83.9791C328.447 83.6805 327.877 83.2911 327.375 82.8111C326.874 82.3311 326.469 81.7338 326.159 81.0191C325.861 80.2938 325.711 79.4031 325.711 78.3471C325.711 77.5045 325.877 76.6831 326.207 75.8831C326.549 75.0831 327.039 74.3738 327.679 73.7551C328.319 73.1365 329.109 72.6405 330.047 72.2671C330.986 71.8938 332.063 71.7071 333.279 71.7071C334.645 71.7071 335.903 71.9205 337.055 72.3471C338.207 72.7738 339.189 73.3711 339.999 74.1391L338.927 76.1711ZM363.674 71.9631V95.0991H359.354V84.9871H348.49V95.0991H344.17V71.9631H348.49V81.9151H359.354V71.9631H363.674ZM373.146 95.0991H368.826V71.9631H373.146V95.0991ZM400.39 83.5311C400.39 85.2271 400.107 86.8005 399.542 88.2511C398.987 89.6911 398.198 90.9391 397.174 91.9951C396.15 93.0511 394.918 93.8778 393.478 94.4751C392.038 95.0618 390.438 95.3551 388.678 95.3551C386.929 95.3551 385.334 95.0618 383.894 94.4751C382.454 93.8778 381.217 93.0511 380.182 91.9951C379.158 90.9391 378.363 89.6911 377.798 88.2511C377.233 86.8005 376.95 85.2271 376.95 83.5311C376.95 81.8351 377.233 80.2671 377.798 78.8271C378.363 77.3765 379.158 76.1231 380.182 75.0671C381.217 74.0111 382.454 73.1898 383.894 72.6031C385.334 72.0058 386.929 71.7071 388.678 71.7071C389.851 71.7071 390.955 71.8458 391.99 72.1231C393.025 72.3898 393.974 72.7738 394.838 73.2751C395.702 73.7658 396.475 74.3685 397.158 75.0831C397.851 75.7871 398.438 76.5765 398.918 77.4511C399.398 78.3258 399.761 79.2751 400.006 80.2991C400.262 81.3231 400.39 82.4005 400.39 83.5311ZM395.99 83.5311C395.99 82.2618 395.819 81.1258 395.478 80.1231C395.137 79.1098 394.651 78.2511 394.022 77.5471C393.393 76.8431 392.625 76.3045 391.718 75.9311C390.822 75.5578 389.809 75.3711 388.678 75.3711C387.547 75.3711 386.529 75.5578 385.622 75.9311C384.726 76.3045 383.958 76.8431 383.318 77.5471C382.689 78.2511 382.203 79.1098 381.862 80.1231C381.521 81.1258 381.35 82.2618 381.35 83.5311C381.35 84.8005 381.521 85.9418 381.862 86.9551C382.203 87.9578 382.689 88.8111 383.318 89.5151C383.958 90.2085 384.726 90.7418 385.622 91.1151C386.529 91.4885 387.547 91.6751 388.678 91.6751C389.809 91.6751 390.822 91.4885 391.718 91.1151C392.625 90.7418 393.393 90.2085 394.022 89.5151C394.651 88.8111 395.137 87.9578 395.478 86.9551C395.819 85.9418 395.99 84.8005 395.99 83.5311ZM423.674 71.9631V95.0991H421.466C421.124 95.0991 420.836 95.0458 420.602 94.9391C420.378 94.8218 420.159 94.6298 419.946 94.3631L407.866 78.9391C407.93 79.6431 407.962 80.2938 407.962 80.8911V95.0991H404.17V71.9631H406.426C406.607 71.9631 406.762 71.9738 406.89 71.9951C407.028 72.0058 407.146 72.0378 407.242 72.0911C407.348 72.1338 407.45 72.2031 407.546 72.2991C407.642 72.3845 407.748 72.5018 407.866 72.6511L419.994 88.1391C419.962 87.7658 419.935 87.3978 419.914 87.0351C419.892 86.6725 419.882 86.3365 419.882 86.0271V71.9631H423.674Z" fill="#F16D7F"/>
</svg>
